<svg width="1024" height="1024" viewBox="0 0 1024 1024" xmlns="http://www.w3.org/2000/svg"><rect width="1024" height="1024" fill="#EDE4C8"/><g transform="translate(512, 512) scale(6) translate(-33, -39)">
  <path d="M -50 92 C -48 70, -28 56, -16 64 C -4 72, -2 52, 4 56" stroke="#1A1209" stroke-width="2.8" stroke-linecap="round" stroke-linejoin="round" fill="none"/>
  <rect x="4" y="20" width="58" height="38" rx="6" stroke="#1A1209" stroke-width="2.8" fill="none"/>
  <rect x="20" y="13" width="18" height="9" rx="4" stroke="#1A1209" stroke-width="2.8" fill="none"/>
  <circle cx="33" cy="39" r="11" stroke="#1A1209" stroke-width="2.8" fill="none"/>
  <circle cx="33" cy="39" r="4.5" fill="#1A1209"/>
  <circle cx="30.5" cy="36.5" r="1.8" fill="#EDE4C8"/>
  <path d="M 60 20 C 70 6, 90 -6, 88 14 C 86 34, 66 32, 70 18 C 74 4, 90 8, 94 -4" stroke="#1A1209" stroke-width="2.8" stroke-linecap="round" stroke-linejoin="round" fill="none"/>
  </g></svg>